<?xml version="1.0" encoding="utf-8"?>
<!-- Generator: Adobe Illustrator 25.4.1, SVG Export Plug-In . SVG Version: 6.00 Build 0)  -->
<svg version="1.0" id="katman_1" xmlns="http://www.w3.org/2000/svg" xmlns:xlink="http://www.w3.org/1999/xlink" x="0px" y="0px"
	 viewBox="0 0 1280 1024" style="enable-background:new 0 0 1280 1024;" xml:space="preserve">
<style type="text/css">
	.st0{fill:#054752;}
	.st1{fill:#2DBEFF;}
	.st2{fill:#9EF769;}
</style>
<path class="st0" d="M347.7,514c-4.7-28.3-31.5-47.4-59.7-42.5l8.3-47.4l-30.3-5.4c-2.5,5.7-14,31.7-19.5,60.9
	c11.2,7.6,19.5,19.7,22,34.3c2.5,15.4-1.9,30.5-11.2,41.6c2.3,2.8,4.9,5.3,7.8,7.6c11.7,9.3,26,12.9,40,10.5
	C333.4,569,352.5,542.2,347.7,514L347.7,514z"/>
<path class="st1" d="M246,482.9l0.6-3.2c-10.8-7.4-24.1-10.7-38-8.4l8.3-47.4l-30.2-5.3c-2.7,5.9-14.9,33.6-20.1,64.1
	c-4.2,24.6-4,51,8.9,69.6c2.9,4,6.2,7.6,10.3,10.8c11.8,9.3,26.2,12.9,40.1,10.5c12.8-2.1,23.7-8.9,31.4-18.1l-2.4-3.2
	C241.9,533.9,241.7,507.5,246,482.9L246,482.9z"/>
<path class="st2" d="M268.5,514c-2.5-14.6-10.8-26.7-22-34.3l-0.6,3.2c-4.1,24.6-3.9,51,9,69.6l2.3,3.2
	c9.3-11.4,13.8-26.4,11.2-41.9L268.5,514z"/>
<path class="st0" d="M957,563.4h-18c-0.6,0-1.1,0.3-1.3,0.8c-2.5,6.7-6.1,12.3-11.2,16.2c-5.1,3.8-11.6,6.1-20.1,6.1
	c-11.6,0-20.9-5.1-27.3-13.6c-6.3-8.6-9.9-20.4-9.9-34c0-13.7,3.5-25.6,9.9-34c6.3-8.4,15.7-13.5,27.3-13.5c8.4,0,14.9,2.2,20,6.1
	c5.1,3.9,8.6,9.5,11.2,16.1c0.2,0.5,0.6,0.9,1.3,0.9h18.1c0.3,0,0.6-0.1,0.8-0.4c0.3-0.2,0.4-0.5,0.4-0.9v-0.3
	c-2.9-12.2-8.8-22.2-17.5-29.2c-8.8-7-20.2-11-34.4-11c-16.5,0-31.1,6.8-41.6,18.4c-10.5,11.7-16.8,28.2-16.8,48.1
	c0,19.9,6.3,36.5,16.8,48.1c10.5,11.7,25.1,18.4,41.6,18.4c14.2,0,25.8-3.9,34.6-11c8.8-7,14.7-17.1,17.5-29.5v-0.3
	c0-0.4-0.1-0.6-0.4-1c-0.1-0.2-0.5-0.3-0.9-0.3L957,563.4z M1115.2,509.9c-1.3-0.3-3-0.5-5.5-0.5c-2.2,0-4.8,0.2-7.9,0.8
	c-2.5,0.5-5.3,1.5-7.8,2.9c-2.5,1.4-5.1,3.3-7.4,5.6c-1.3,1.3-2.5,2.9-3.7,4.6l-0.8,1.3v-12.3c0-0.8-0.6-1.4-1.3-1.4h-17.3
	c-0.6,0-1.3,0.6-1.3,1.4v90.1c0,0.6,0.6,1.3,1.3,1.3h17.4c0.8,0,1.4-0.6,1.4-1.3v-43.8c0-5.1,0.6-9.4,1.7-12.9
	c1.1-3.6,2.9-6.3,5.1-8.5c2.3-2.2,5-3.8,8-4.9c3.6-1.3,7.4-1.7,10.8-1.7c2.5,0,5.1,0.3,6.5,0.5h0.2c0.8,0,1.3-0.5,1.3-1.3v-18.5
	c0.2-0.6-0.3-1.3-1-1.4H1115.2z M741.2,472.5h-0.3l-17.5,3c-0.6,0.1-1.3,0.6-1.3,1.3v125.6c0,0.8,0.6,1.4,1.5,1.4h17.6
	c0.6,0,1.3-0.6,1.3-1.4V473.9c0-0.8-0.6-1.4-1.5-1.4H741.2z M705.2,547c-2.5-5.2-6.1-9.6-10.5-13.3l-1.3-1c-1.9-1.5-4-2.8-6.2-3.8
	l-0.6-0.3l0.4-0.4c2-2.3,3.8-5.1,5.1-8c1.9-4.3,2.9-8.6,2.9-13.2c0-5-1-9.5-2.9-14c-1.9-4.4-4.6-8.1-8.1-11.3
	c-3.2-2.9-7-5.2-11.3-6.9s-9.7-2.5-16.1-2.5h-38.5c-0.8,0-1.4,0.6-1.4,1.5v128.5c0,0.8,0.6,1.4,1.4,1.4h47.5c6.8,0,12.4-0.8,17-2.3
	c4.4-1.5,8.6-3.8,12.1-6.7c4.3-3.6,7.9-8.1,10.5-13.3c0.6-1.3,1.1-2.3,1.5-3.5l0.2-0.5l0.3-0.9c1.3-3.9,2-8.1,2-12.4
	c-0.1-6.2-1.5-12.1-4.1-17.3L705.2,547z M637.3,491.8h16.1c5.1,0,8.9,0.4,11.4,1.3c2.4,1,4.3,2.2,5.7,3.8c2.7,3,4.1,6.6,4.1,10.8
	c0,4.1-1.3,7.6-4.1,10.7c-1.4,1.6-3.2,2.9-5.7,3.8c-1.8,0.6-4.4,1-7.6,1.3h-20.1v-31.6H637.3z M686.8,571.5c-1,2.5-2.4,4.7-4.2,6.6
	c-2,1.9-4.4,3.6-7.4,4.7c-3,1.1-7.4,1.7-13.2,1.7h-24.8v-41.7H662c5.8,0,10.2,0.6,13.1,1.7c2.9,1.1,5.3,2.7,7.3,4.7
	c1.8,1.9,3.2,4.1,4.3,6.5c1.1,2.3,1.6,5.1,1.6,7.8c0,2.9-0.5,5.5-1.6,8H686.8z M825.2,518.4c-6.7-6.2-16-9.2-27.5-9.2
	c-10.4,0-18.9,2.5-25.4,7.6c-5.7,4.3-9.8,9.7-12.1,16.2c-0.3,0.6,0.2,1.5,1,1.6l16.4,2.9c0.6,0.1,1.1-0.2,1.3-0.6
	c3.4-7.4,9.6-11,18.9-11c6.3,0,11.2,1.7,14.6,5.2c3.4,3.5,5.1,8.1,5.1,14v3.3c-8.6-2.5-16.8-3.8-24.4-3.8c-10.8,0-19.8,2.7-27,8.1
	c-7.1,5.5-10.8,13.1-10.8,23c0,9.4,3.4,16.8,9.9,22.1s14.4,8,23.7,8c11.8,0,21.6-3.4,28.7-10.5v7.1c0,0.9,0.8,1.6,1.6,1.6h15.1
	c0.8,0,1.5-0.6,1.5-1.5v-58.6C835.5,532.9,832.1,524.5,825.2,518.4L825.2,518.4z M809.8,581.9c-5.1,4.3-11.2,6.3-18.6,6.3
	c-5.4,0-9.5-1.3-12.4-3.7c-2.8-2.4-4.3-5.7-4.3-9.9c0-4.6,1.9-8,5.5-10.3c3.6-2.3,8.3-3.5,14-3.5c7.2,0,15,1.3,23.5,3.8
	C817.4,572.1,814.9,577.8,809.8,581.9L809.8,581.9z M505.7,472.5h-0.3l-17.5,3c-0.6,0.1-1.3,0.6-1.3,1.3v125.6
	c0,0.8,0.6,1.4,1.5,1.4h17.6c0.6,0,1.3-0.6,1.3-1.4V473.9c0-0.8-0.6-1.4-1.4-1.4H505.7z M469.5,547c-2.5-5.2-6-9.6-10.3-13.3l-1.3-1
	c-1.9-1.5-4-2.8-6.2-3.8l-0.6-0.3l0.4-0.4c2-2.3,3.8-5.1,5.1-8c1.9-4.3,2.9-8.6,2.9-13.2c0-5-1-9.5-2.9-14
	c-1.9-4.4-4.6-8.1-8.1-11.3c-3.2-2.9-7-5.2-11.2-6.9c-4.3-1.7-9.7-2.5-16.1-2.5h-38.4c-0.8,0-1.4,0.6-1.4,1.5v128.5
	c0,0.8,0.6,1.4,1.4,1.4h47.3c6.8,0,12.4-0.8,17-2.3c4.4-1.5,8.6-3.8,12.1-6.7c4.3-3.6,7.9-8.1,10.5-13.3c0.6-1.3,1.1-2.3,1.5-3.5
	l0.2-0.5c0-0.3,0.1-0.6,0.3-0.9c1.3-3.9,2-8.1,2-12.4c-0.1-6.2-1.5-12.1-4.1-17.3L469.5,547z M401.6,491.8h16.2
	c5.1,0,8.9,0.4,11.4,1.3c2.4,1,4.3,2.2,5.7,3.8c2.7,3,4.1,6.6,4.1,10.8c0,4.1-1.3,7.6-4.1,10.7c-1.4,1.6-3.2,2.9-5.7,3.8
	c-1.8,0.6-4.4,1-7.6,1.3h-20.1V491.8z M451.3,571.5c-1.1,2.5-2.5,4.7-4.3,6.6c-2,1.9-4.4,3.6-7.4,4.7c-3,1.1-7.4,1.7-13.2,1.7h-24.8
	v-41.7h24.8c5.9,0,10.3,0.6,13.2,1.7c3,1.1,5.5,2.7,7.4,4.7c1.8,1.9,3.2,4.1,4.3,6.5c1.1,2.3,1.6,5.1,1.6,7.8
	C452.9,566.4,452.3,569,451.3,571.5L451.3,571.5z M589.7,518.4c-6.8-6.2-16.1-9.2-27.6-9.2c-10.3,0-18.9,2.5-25.4,7.6
	c-5.7,4.3-9.8,9.7-12.1,16.2c-0.2,0.6,0.3,1.5,1,1.6l16.3,2.9c0.6,0.1,1.3-0.2,1.5-0.6c3.3-7.4,9.5-11,18.9-11
	c6.2,0,11,1.7,14.5,5.2s5.2,8.1,5.2,14v3.3c-8.7-2.5-16.9-3.8-24.5-3.8c-10.8,0-19.8,2.7-27,8.1c-7.3,5.5-10.8,13.1-10.8,23
	c0,9.4,3.2,16.8,9.7,22.1s14.4,8,23.7,8c11.9,0,21.6-3.4,28.8-10.5v7.1c0,0.9,0.6,1.6,1.5,1.6h15.1c0.9,0,1.6-0.6,1.6-1.5v-58.6
	c-0.2-10.8-3.6-19.2-10.4-25.3H589.7z M574.2,581.9c-5.1,4.3-11.4,6.3-18.7,6.3c-5.4,0-9.5-1.3-12.4-3.7c-2.9-2.4-4.4-5.7-4.4-9.9
	c0-4.6,1.9-8,5.5-10.3c3.6-2.3,8.3-3.5,14-3.5c7.2,0,15.1,1.3,23.5,3.8c0.1,7.4-2.4,13.1-7.5,17.1L574.2,581.9z M1037.9,518.4
	c-6.8-6.2-16.1-9.2-27.6-9.2c-10.3,0-18.8,2.5-25.4,7.6c-5.7,4.3-9.7,9.7-12.1,16.2c-0.1,0.6,0.3,1.5,1.1,1.6l16.4,2.9
	c0.6,0.1,1.1-0.2,1.3-0.6c3.4-7.4,9.6-11,18.9-11c6.2,0,11.1,1.7,14.6,5.2c3.4,3.5,5.1,8.1,5.1,14v3.3c-8.6-2.5-16.8-3.8-24.4-3.8
	c-10.8,0-19.8,2.7-27,8.1c-7.2,5.5-10.8,13.1-10.8,23c0,9.4,3.3,16.8,9.8,22.1c6.5,5.3,14.4,8,23.7,8c11.9,0,21.6-3.4,28.8-10.5v7.1
	c0,0.9,0.6,1.6,1.5,1.6h15.1c0.8,0,1.5-0.6,1.5-1.5v-58.6C1048.2,532.9,1044.8,524.5,1037.9,518.4L1037.9,518.4z M1022.4,581.9
	c-5.1,4.3-11.2,6.3-18.5,6.3c-5.4,0-9.5-1.3-12.4-3.7c-2.8-2.4-4.3-5.7-4.3-9.9c0-4.6,1.9-8,5.5-10.3c3.6-2.3,8.3-3.5,14-3.5
	c7.2,0,15.2,1.3,23.5,3.8C1030.1,572.1,1027.5,577.8,1022.4,581.9L1022.4,581.9z"/>
</svg>
